<svg xmlns="http://www.w3.org/2000/svg" xmlns:xlink="http://www.w3.org/1999/xlink" width="500" zoomAndPan="magnify" viewBox="0 0 375 374.999991" height="500" preserveAspectRatio="xMidYMid meet" version="1.0"><defs><filter x="0%" y="0%" width="100%" height="100%" id="5cec42b10a"><feColorMatrix values="0 0 0 0 1 0 0 0 0 1 0 0 0 0 1 0 0 0 1 0" color-interpolation-filters="sRGB"/></filter><g/><mask id="61991c1960"><g filter="url(#5cec42b10a)"><rect x="-37.5" width="450" fill="#000000" y="-37.499999" height="449.999989" fill-opacity="0.29"/></g></mask><clipPath id="0686b963f4"><rect x="0" width="274" y="0" height="78"/></clipPath><mask id="cdf681025b"><g filter="url(#5cec42b10a)"><rect x="-37.5" width="450" fill="#000000" y="-37.499999" height="449.999989" fill-opacity="0.41"/></g></mask><clipPath id="4e7114cb4a"><path d="M 0.921875 2 L 17 2 L 17 23 L 0.921875 23 Z M 0.921875 2 " clip-rule="nonzero"/></clipPath><clipPath id="0cbe1a3b4b"><rect x="0" width="169" y="0" height="31"/></clipPath></defs><rect x="-37.5" width="450" fill="#ffffff" y="-37.499999" height="449.999989" fill-opacity="1"/><rect x="-37.5" width="450" fill="#000000" y="-37.499999" height="449.999989" fill-opacity="1"/><g mask="url(#61991c1960)"><g transform="matrix(1, 0, 0, 1, 50, 145)"><g clip-path="url(#0686b963f4)"><g fill="#ffffff" fill-opacity="1"><g transform="translate(1.410157, 64.387227)"><g><path d="M 61.421875 -10.296875 C 61.421875 -8.003906 60.726562 -5.921875 59.34375 -4.046875 C 57.96875 -2.171875 56.195312 -0.878906 54.03125 -0.171875 L 66 -0.265625 C 66.113281 -0.265625 66.171875 -0.175781 66.171875 0 C 66.171875 0.0625 66.171875 0.117188 66.171875 0.171875 C 66.117188 0.234375 66.0625 0.265625 66 0.265625 L 50.859375 0.265625 C 50.679688 0.265625 50.59375 0.175781 50.59375 0 C 50.59375 0 50.59375 -0.03125 50.59375 -0.09375 C 50.65625 -0.09375 50.6875 -0.09375 50.6875 -0.09375 C 50.6875 -0.144531 50.6875 -0.171875 50.6875 -0.171875 C 50.75 -0.171875 50.78125 -0.171875 50.78125 -0.171875 C 50.832031 -0.171875 50.859375 -0.171875 50.859375 -0.171875 C 52.097656 -0.171875 53.171875 -0.625 54.078125 -1.53125 C 54.984375 -2.445312 55.4375 -3.519531 55.4375 -4.75 L 55.4375 -50.953125 C 55.4375 -51.242188 55.4375 -51.566406 55.4375 -51.921875 L 36.875 -6.078125 L 36.34375 -4.921875 L 33.875 1.0625 C 33.875 1.0625 33.847656 1.085938 33.796875 1.140625 C 33.734375 1.140625 33.703125 1.140625 33.703125 1.140625 C 33.640625 1.140625 33.609375 1.140625 33.609375 1.140625 C 33.609375 1.140625 33.582031 1.140625 33.53125 1.140625 C 33.53125 1.085938 33.53125 1.0625 33.53125 1.0625 L 10.828125 -50.59375 C 10.765625 -50.769531 10.703125 -50.976562 10.640625 -51.21875 L 10.640625 -2.109375 C 10.640625 -1.929688 10.554688 -1.84375 10.390625 -1.84375 C 10.210938 -1.84375 10.125 -1.929688 10.125 -2.109375 L 10.125 -5.28125 C 9.300781 -2.875 7.65625 -1.203125 5.1875 -0.265625 L 17.859375 -0.265625 C 17.921875 -0.265625 17.984375 -0.234375 18.046875 -0.171875 C 18.046875 -0.117188 18.046875 -0.0625 18.046875 0 C 18.046875 0.0625 18.046875 0.117188 18.046875 0.171875 C 17.984375 0.234375 17.921875 0.265625 17.859375 0.265625 L 2.734375 0.265625 C 2.671875 0.265625 2.609375 0.234375 2.546875 0.171875 C 2.492188 0.117188 2.46875 0.0625 2.46875 0 C 2.46875 -0.0625 2.492188 -0.117188 2.546875 -0.171875 C 2.609375 -0.234375 2.671875 -0.265625 2.734375 -0.265625 C 4.722656 -0.265625 6.453125 -1.023438 7.921875 -2.546875 C 9.390625 -4.078125 10.125 -5.898438 10.125 -8.015625 L 10.125 -53.859375 C 10.125 -55.492188 10.59375 -56.972656 11.53125 -58.296875 C 12.46875 -59.617188 13.695312 -60.546875 15.21875 -61.078125 L 2.734375 -61.078125 C 2.554688 -61.078125 2.46875 -61.164062 2.46875 -61.34375 C 2.46875 -61.457031 2.554688 -61.515625 2.734375 -61.515625 L 17.78125 -61.515625 C 17.957031 -61.515625 18.046875 -61.457031 18.046875 -61.34375 C 18.046875 -61.164062 17.957031 -61.078125 17.78125 -61.078125 C 16.894531 -61.078125 16.128906 -60.753906 15.484375 -60.109375 C 14.835938 -59.460938 14.515625 -58.695312 14.515625 -57.8125 C 14.578125 -57.226562 14.722656 -56.671875 14.953125 -56.140625 L 36.609375 -6.78125 L 56.234375 -55 C 56.234375 -55.0625 56.234375 -55.09375 56.234375 -55.09375 L 56.234375 -55.171875 C 57.523438 -58.160156 59.722656 -60.128906 62.828125 -61.078125 L 50.859375 -61.078125 C 50.679688 -61.078125 50.59375 -61.164062 50.59375 -61.34375 C 50.59375 -61.457031 50.679688 -61.515625 50.859375 -61.515625 L 66 -61.515625 C 66.113281 -61.515625 66.171875 -61.457031 66.171875 -61.34375 C 66.171875 -61.164062 66.113281 -61.078125 66 -61.078125 C 65.882812 -61.078125 65.796875 -61.078125 65.734375 -61.078125 C 65.671875 -61.078125 65.582031 -61.078125 65.46875 -61.078125 C 64.351562 -60.953125 63.398438 -60.445312 62.609375 -59.5625 C 61.816406 -58.6875 61.421875 -57.664062 61.421875 -56.5 Z M 61.421875 -10.296875 "/></g></g></g><g fill="#ffffff" fill-opacity="1"><g transform="translate(71.367073, 64.387227)"><g><path d="M 13.375 -53.15625 C 16.488281 -56.257812 19.976562 -58.585938 23.84375 -60.140625 C 27.71875 -61.703125 31.722656 -62.484375 35.859375 -62.484375 C 39.992188 -62.484375 44 -61.703125 47.875 -60.140625 C 51.75 -58.585938 55.238281 -56.257812 58.34375 -53.15625 C 61.332031 -50.15625 63.632812 -46.703125 65.25 -42.796875 C 66.863281 -38.898438 67.671875 -34.84375 67.671875 -30.625 C 67.671875 -26.394531 66.863281 -22.328125 65.25 -18.421875 C 63.632812 -14.523438 61.332031 -11.113281 58.34375 -8.1875 C 55.351562 -5.195312 51.90625 -2.894531 48 -1.28125 C 44.101562 0.332031 40.039062 1.140625 35.8125 1.140625 C 31.59375 1.140625 27.546875 0.332031 23.671875 -1.28125 C 19.796875 -2.894531 16.363281 -5.195312 13.375 -8.1875 C 10.269531 -11.289062 7.9375 -14.78125 6.375 -18.65625 C 4.820312 -22.53125 4.046875 -26.535156 4.046875 -30.671875 C 4.046875 -34.804688 4.820312 -38.804688 6.375 -42.671875 C 7.9375 -46.546875 10.269531 -50.039062 13.375 -53.15625 Z M 13.640625 -52.796875 C 11.296875 -50.453125 9.648438 -47.648438 8.703125 -44.390625 C 7.765625 -41.140625 7.515625 -37.707031 7.953125 -34.09375 C 8.398438 -30.488281 9.515625 -26.894531 11.296875 -23.3125 C 13.085938 -19.738281 15.507812 -16.425781 18.5625 -13.375 C 21.613281 -10.320312 24.925781 -7.898438 28.5 -6.109375 C 32.082031 -4.328125 35.675781 -3.210938 39.28125 -2.765625 C 42.894531 -2.328125 46.328125 -2.578125 49.578125 -3.515625 C 52.835938 -4.453125 55.640625 -6.097656 57.984375 -8.453125 C 60.335938 -10.796875 62 -13.578125 62.96875 -16.796875 C 63.9375 -20.023438 64.210938 -23.488281 63.796875 -27.1875 C 63.328125 -30.945312 62.179688 -34.613281 60.359375 -38.1875 C 58.546875 -41.769531 56.144531 -45.023438 53.15625 -47.953125 C 49.632812 -51.535156 45.742188 -54.234375 41.484375 -56.046875 C 37.234375 -57.867188 33.085938 -58.78125 29.046875 -58.78125 C 26.109375 -58.78125 23.316406 -58.28125 20.671875 -57.28125 C 18.035156 -56.289062 15.691406 -54.796875 13.640625 -52.796875 Z M 13.640625 -52.796875 "/></g></g></g><g fill="#ffffff" fill-opacity="1"><g transform="translate(143.171913, 64.387227)"><g><path d="M 54.828125 -61.515625 C 55.003906 -61.515625 55.09375 -61.457031 55.09375 -61.34375 C 55.09375 -61.34375 55.09375 -61.328125 55.09375 -61.296875 C 55.09375 -61.265625 55.09375 -61.25 55.09375 -61.25 C 55.09375 -61.132812 55.003906 -61.078125 54.828125 -61.078125 L 54.296875 -61.078125 C 53.179688 -60.898438 52.242188 -60.382812 51.484375 -59.53125 C 50.722656 -58.675781 50.34375 -57.664062 50.34375 -56.5 L 50.34375 -42.15625 C 50.34375 -39.6875 49.546875 -37.484375 47.953125 -35.546875 C 46.367188 -33.609375 44.375 -32.378906 41.96875 -31.859375 C 44.375 -31.328125 46.367188 -30.09375 47.953125 -28.15625 C 49.546875 -26.21875 50.34375 -23.988281 50.34375 -21.46875 L 50.34375 -10.296875 C 50.34375 -8.003906 49.648438 -5.921875 48.265625 -4.046875 C 46.890625 -2.171875 45.085938 -0.878906 42.859375 -0.171875 L 54.828125 -0.171875 C 55.003906 -0.171875 55.09375 -0.113281 55.09375 0 C 55.09375 0.175781 55.003906 0.265625 54.828125 0.265625 L 39.78125 0.265625 C 39.601562 0.265625 39.515625 0.175781 39.515625 0 C 39.515625 -0.113281 39.601562 -0.171875 39.78125 -0.171875 C 39.832031 -0.171875 39.898438 -0.1875 39.984375 -0.21875 C 40.078125 -0.25 40.15625 -0.265625 40.21875 -0.265625 C 41.382812 -0.378906 42.347656 -0.859375 43.109375 -1.703125 C 43.878906 -2.554688 44.265625 -3.570312 44.265625 -4.75 L 44.265625 -27.015625 C 44.265625 -28.191406 43.878906 -29.21875 43.109375 -30.09375 C 42.347656 -30.976562 41.382812 -31.476562 40.21875 -31.59375 C 40.15625 -31.59375 40.078125 -31.59375 39.984375 -31.59375 C 39.898438 -31.59375 39.832031 -31.59375 39.78125 -31.59375 L 18.75 -31.59375 C 18.6875 -31.59375 18.609375 -31.59375 18.515625 -31.59375 C 18.429688 -31.59375 18.359375 -31.59375 18.296875 -31.59375 C 17.128906 -31.476562 16.160156 -30.976562 15.390625 -30.09375 C 14.628906 -29.21875 14.25 -28.191406 14.25 -27.015625 L 14.25 -10.296875 C 14.25 -8.003906 13.5625 -5.929688 12.1875 -4.078125 C 10.8125 -2.234375 9.035156 -0.960938 6.859375 -0.265625 L 18.75 -0.265625 C 18.925781 -0.265625 19.015625 -0.175781 19.015625 0 C 19.015625 0.175781 18.925781 0.265625 18.75 0.265625 L 4.3125 0.265625 C 4.195312 0.265625 4.09375 0.265625 4 0.265625 C 3.914062 0.265625 3.816406 0.265625 3.703125 0.265625 C 3.523438 0.265625 3.4375 0.175781 3.4375 0 C 3.4375 -0.175781 3.523438 -0.265625 3.703125 -0.265625 L 4.21875 -0.265625 C 5.332031 -0.378906 6.269531 -0.859375 7.03125 -1.703125 C 7.800781 -2.554688 8.1875 -3.570312 8.1875 -4.75 L 8.1875 -21.46875 C 8.1875 -23.988281 8.976562 -26.21875 10.5625 -28.15625 C 12.144531 -30.09375 14.140625 -31.328125 16.546875 -31.859375 C 14.140625 -32.378906 12.144531 -33.609375 10.5625 -35.546875 C 8.976562 -37.484375 8.1875 -39.6875 8.1875 -42.15625 L 8.1875 -50.953125 C 8.1875 -53.296875 8.875 -55.390625 10.25 -57.234375 C 11.625 -59.085938 13.425781 -60.367188 15.65625 -61.078125 L 3.703125 -61.078125 C 3.523438 -61.078125 3.4375 -61.164062 3.4375 -61.34375 C 3.4375 -61.457031 3.523438 -61.515625 3.703125 -61.515625 L 18.75 -61.515625 C 18.925781 -61.515625 19.015625 -61.457031 19.015625 -61.34375 C 19.015625 -61.164062 18.925781 -61.078125 18.75 -61.078125 C 18.6875 -61.078125 18.609375 -61.078125 18.515625 -61.078125 C 18.429688 -61.078125 18.359375 -61.078125 18.296875 -61.078125 C 17.128906 -60.953125 16.160156 -60.445312 15.390625 -59.5625 C 14.628906 -58.6875 14.25 -57.664062 14.25 -56.5 L 14.25 -36.609375 C 14.25 -35.429688 14.628906 -34.414062 15.390625 -33.5625 C 16.160156 -32.71875 17.128906 -32.238281 18.296875 -32.125 C 18.359375 -32.125 18.429688 -32.109375 18.515625 -32.078125 C 18.609375 -32.046875 18.6875 -32.03125 18.75 -32.03125 L 39.78125 -32.03125 C 39.832031 -32.03125 39.898438 -32.046875 39.984375 -32.078125 C 40.078125 -32.109375 40.15625 -32.125 40.21875 -32.125 C 41.382812 -32.238281 42.347656 -32.71875 43.109375 -33.5625 C 43.878906 -34.414062 44.265625 -35.429688 44.265625 -36.609375 L 44.265625 -50.953125 C 44.265625 -53.242188 44.953125 -55.328125 46.328125 -57.203125 C 47.710938 -59.078125 49.488281 -60.367188 51.65625 -61.078125 L 39.78125 -61.078125 C 39.601562 -61.078125 39.515625 -61.132812 39.515625 -61.25 C 39.515625 -61.425781 39.601562 -61.515625 39.78125 -61.515625 L 54.203125 -61.515625 C 54.328125 -61.515625 54.445312 -61.515625 54.5625 -61.515625 C 54.675781 -61.515625 54.765625 -61.515625 54.828125 -61.515625 Z M 54.828125 -61.515625 "/></g></g></g><g fill="#ffffff" fill-opacity="1"><g transform="translate(201.777332, 64.387227)"><g><path d="M 13.375 -53.15625 C 16.488281 -56.257812 19.976562 -58.585938 23.84375 -60.140625 C 27.71875 -61.703125 31.722656 -62.484375 35.859375 -62.484375 C 39.992188 -62.484375 44 -61.703125 47.875 -60.140625 C 51.75 -58.585938 55.238281 -56.257812 58.34375 -53.15625 C 61.332031 -50.15625 63.632812 -46.703125 65.25 -42.796875 C 66.863281 -38.898438 67.671875 -34.84375 67.671875 -30.625 C 67.671875 -26.394531 66.863281 -22.328125 65.25 -18.421875 C 63.632812 -14.523438 61.332031 -11.113281 58.34375 -8.1875 C 55.351562 -5.195312 51.90625 -2.894531 48 -1.28125 C 44.101562 0.332031 40.039062 1.140625 35.8125 1.140625 C 31.59375 1.140625 27.546875 0.332031 23.671875 -1.28125 C 19.796875 -2.894531 16.363281 -5.195312 13.375 -8.1875 C 10.269531 -11.289062 7.9375 -14.78125 6.375 -18.65625 C 4.820312 -22.53125 4.046875 -26.535156 4.046875 -30.671875 C 4.046875 -34.804688 4.820312 -38.804688 6.375 -42.671875 C 7.9375 -46.546875 10.269531 -50.039062 13.375 -53.15625 Z M 13.640625 -52.796875 C 11.296875 -50.453125 9.648438 -47.648438 8.703125 -44.390625 C 7.765625 -41.140625 7.515625 -37.707031 7.953125 -34.09375 C 8.398438 -30.488281 9.515625 -26.894531 11.296875 -23.3125 C 13.085938 -19.738281 15.507812 -16.425781 18.5625 -13.375 C 21.613281 -10.320312 24.925781 -7.898438 28.5 -6.109375 C 32.082031 -4.328125 35.675781 -3.210938 39.28125 -2.765625 C 42.894531 -2.328125 46.328125 -2.578125 49.578125 -3.515625 C 52.835938 -4.453125 55.640625 -6.097656 57.984375 -8.453125 C 60.335938 -10.796875 62 -13.578125 62.96875 -16.796875 C 63.9375 -20.023438 64.210938 -23.488281 63.796875 -27.1875 C 63.328125 -30.945312 62.179688 -34.613281 60.359375 -38.1875 C 58.546875 -41.769531 56.144531 -45.023438 53.15625 -47.953125 C 49.632812 -51.535156 45.742188 -54.234375 41.484375 -56.046875 C 37.234375 -57.867188 33.085938 -58.78125 29.046875 -58.78125 C 26.109375 -58.78125 23.316406 -58.28125 20.671875 -57.28125 C 18.035156 -56.289062 15.691406 -54.796875 13.640625 -52.796875 Z M 13.640625 -52.796875 "/></g></g></g></g></g></g><g mask="url(#cdf681025b)"><g transform="matrix(1, 0, 0, 1, 103, 221)"><g clip-path="url(#0cbe1a3b4b)"><g clip-path="url(#4e7114cb4a)"><g fill="#ffffff" fill-opacity="1"><g transform="translate(0.988274, 22.557269)"><g><path d="M 9.515625 -10.578125 L 13.515625 -3.515625 C 13.703125 -3.179688 13.9375 -2.773438 14.21875 -2.296875 C 14.5 -1.828125 14.785156 -1.378906 15.078125 -0.953125 C 15.367188 -0.523438 15.601562 -0.207031 15.78125 0 L 13.109375 0 C 12.660156 0 12.328125 -0.0859375 12.109375 -0.265625 C 11.890625 -0.453125 11.671875 -0.734375 11.453125 -1.109375 L 6.203125 -10.328125 C 5.992188 -10.710938 5.785156 -10.925781 5.578125 -10.96875 C 5.378906 -11.019531 5.078125 -11.046875 4.671875 -11.046875 L 3.59375 -11.046875 C 3.363281 -10.179688 3.25 -9.3125 3.25 -8.4375 L 3.25 -3.1875 C 3.25 -2.332031 3.296875 -1.585938 3.390625 -0.953125 C 3.484375 -0.316406 3.53125 0 3.53125 0 L 0 0 C 0 0 0.046875 -0.316406 0.140625 -0.953125 C 0.242188 -1.585938 0.296875 -2.332031 0.296875 -3.1875 L 0.296875 -17.109375 C 0.296875 -17.960938 0.242188 -18.707031 0.140625 -19.34375 C 0.046875 -19.976562 0 -20.296875 0 -20.296875 L 3.53125 -20.296875 C 3.53125 -20.296875 3.484375 -19.976562 3.390625 -19.34375 C 3.296875 -18.707031 3.25 -17.960938 3.25 -17.109375 L 3.25 -11.625 C 3.5 -12.707031 3.878906 -13.765625 4.390625 -14.796875 C 4.898438 -15.835938 5.535156 -16.769531 6.296875 -17.59375 C 7.066406 -18.425781 7.941406 -19.082031 8.921875 -19.5625 C 9.910156 -20.050781 11 -20.296875 12.1875 -20.296875 C 13.4375 -20.296875 14.582031 -20.066406 15.625 -19.609375 L 14.4375 -16.640625 C 14.050781 -17.023438 13.550781 -17.289062 12.9375 -17.4375 C 12.332031 -17.582031 11.742188 -17.640625 11.171875 -17.609375 C 9.960938 -17.546875 8.851562 -17.226562 7.84375 -16.65625 C 6.84375 -16.09375 5.984375 -15.351562 5.265625 -14.4375 C 4.554688 -13.53125 4.039062 -12.523438 3.71875 -11.421875 L 7.953125 -11.421875 C 8.390625 -11.421875 8.703125 -11.378906 8.890625 -11.296875 C 9.085938 -11.210938 9.296875 -10.972656 9.515625 -10.578125 Z M 9.515625 -10.578125 "/></g></g></g></g><g fill="#ffffff" fill-opacity="1"><g transform="translate(19.311328, 22.557269)"><g><path d="M 3.109375 -12.703125 C 3.109375 -12.703125 3.054688 -12.378906 2.953125 -11.734375 C 2.859375 -11.097656 2.8125 -10.347656 2.8125 -9.484375 L 2.8125 -3.1875 C 2.8125 -2.332031 2.859375 -1.585938 2.953125 -0.953125 C 3.054688 -0.316406 3.109375 0 3.109375 0 L 0 0 C 0 0 0.046875 -0.316406 0.140625 -0.953125 C 0.242188 -1.585938 0.296875 -2.332031 0.296875 -3.1875 L 0.296875 -9.484375 C 0.296875 -10.347656 0.242188 -11.097656 0.140625 -11.734375 C 0.046875 -12.378906 0 -12.703125 0 -12.703125 Z M 1.53125 -15.65625 C 1.90625 -15.65625 2.210938 -15.535156 2.453125 -15.296875 C 2.691406 -15.054688 2.8125 -14.757812 2.8125 -14.40625 C 2.8125 -14.0625 2.691406 -13.765625 2.453125 -13.515625 C 2.210938 -13.265625 1.90625 -13.140625 1.53125 -13.140625 C 1.1875 -13.140625 0.894531 -13.265625 0.65625 -13.515625 C 0.414062 -13.765625 0.296875 -14.0625 0.296875 -14.40625 C 0.296875 -14.757812 0.414062 -15.054688 0.65625 -15.296875 C 0.894531 -15.535156 1.1875 -15.65625 1.53125 -15.65625 Z M 1.53125 -15.65625 "/></g></g></g><g fill="#ffffff" fill-opacity="1"><g transform="translate(24.9938, 22.557269)"><g><path d="M 0.578125 -12.296875 L -0.84375 -12.296875 L -0.84375 -12.703125 C -0.28125 -12.703125 0.257812 -12.90625 0.78125 -13.3125 C 1.300781 -13.71875 1.738281 -14.238281 2.09375 -14.875 C 2.457031 -15.507812 2.664062 -16.15625 2.71875 -16.8125 L 3.125 -16.8125 L 3.125 -12.703125 L 5.71875 -12.703125 L 5.71875 -12.296875 L 3.125 -12.296875 L 3.125 -3.921875 C 3.125 -3.546875 3.140625 -3.070312 3.171875 -2.5 C 3.203125 -1.9375 3.34375 -1.488281 3.59375 -1.15625 C 3.789062 -0.882812 4.035156 -0.726562 4.328125 -0.6875 C 4.628906 -0.65625 4.929688 -0.695312 5.234375 -0.8125 C 5.535156 -0.925781 5.789062 -1.0625 6 -1.21875 L 6 -0.984375 C 5.675781 -0.597656 5.273438 -0.335938 4.796875 -0.203125 C 4.328125 -0.0664062 3.898438 0 3.515625 0 C 1.554688 0 0.578125 -1.320312 0.578125 -3.96875 Z M 0.578125 -12.296875 "/></g></g></g><g fill="#ffffff" fill-opacity="1"><g transform="translate(33.488508, 22.557269)"><g><path d="M 6.578125 -12.703125 C 7.453125 -12.703125 8.40625 -12.597656 9.4375 -12.390625 C 10.46875 -12.191406 11.429688 -11.867188 12.328125 -11.421875 L 11.59375 -9.96875 C 11.050781 -10.4375 10.453125 -10.847656 9.796875 -11.203125 C 9.140625 -11.566406 8.445312 -11.84375 7.71875 -12.03125 C 6.5 -12.363281 5.425781 -12.375 4.5 -12.0625 C 3.570312 -11.75 2.867188 -11.207031 2.390625 -10.4375 C 1.921875 -9.664062 1.734375 -8.738281 1.828125 -7.65625 C 1.921875 -6.707031 2.21875 -5.78125 2.71875 -4.875 C 3.226562 -3.976562 3.882812 -3.226562 4.6875 -2.625 C 5.488281 -2.019531 6.378906 -1.648438 7.359375 -1.515625 C 7.941406 -1.429688 8.523438 -1.472656 9.109375 -1.640625 C 9.703125 -1.804688 10.257812 -2.097656 10.78125 -2.515625 C 11.582031 -3.191406 12.085938 -4.046875 12.296875 -5.078125 L 12.703125 -5.078125 C 12.503906 -4.109375 12.097656 -3.238281 11.484375 -2.46875 C 10.867188 -1.707031 10.113281 -1.101562 9.21875 -0.65625 C 8.332031 -0.21875 7.375 0 6.34375 0 C 5.226562 0 4.1875 -0.269531 3.21875 -0.8125 C 2.269531 -1.375 1.492188 -2.140625 0.890625 -3.109375 C 0.296875 -4.085938 0 -5.164062 0 -6.34375 C 0 -7.582031 0.289062 -8.679688 0.875 -9.640625 C 1.46875 -10.597656 2.257812 -11.347656 3.25 -11.890625 C 4.25 -12.429688 5.359375 -12.703125 6.578125 -12.703125 Z M 6.578125 -12.703125 "/></g></g></g><g fill="#ffffff" fill-opacity="1"><g transform="translate(48.738389, 22.557269)"><g><path d="M 3.109375 -20.296875 C 3.109375 -20.296875 3.054688 -19.976562 2.953125 -19.34375 C 2.859375 -18.707031 2.8125 -17.960938 2.8125 -17.109375 L 2.8125 -10.578125 C 3.394531 -10.890625 4.035156 -11.203125 4.734375 -11.515625 C 5.441406 -11.835938 6.175781 -12.113281 6.9375 -12.34375 C 7.707031 -12.582031 8.445312 -12.703125 9.15625 -12.703125 C 10.070312 -12.703125 10.769531 -12.535156 11.25 -12.203125 C 11.738281 -11.878906 12.070312 -11.414062 12.25 -10.8125 C 12.4375 -10.21875 12.53125 -9.515625 12.53125 -8.703125 L 12.53125 -3.1875 C 12.53125 -2.332031 12.578125 -1.585938 12.671875 -0.953125 C 12.765625 -0.316406 12.8125 0 12.8125 0 L 9.71875 0 C 9.71875 0 9.765625 -0.316406 9.859375 -0.953125 C 9.953125 -1.585938 10 -2.332031 10 -3.1875 L 10 -8.765625 C 10 -10.078125 9.703125 -11.015625 9.109375 -11.578125 C 8.523438 -12.148438 7.554688 -12.1875 6.203125 -11.6875 C 5.585938 -11.476562 4.984375 -11.234375 4.390625 -10.953125 C 3.804688 -10.671875 3.28125 -10.40625 2.8125 -10.15625 C 2.8125 -8.445312 2.8125 -6.75 2.8125 -5.0625 C 2.8125 -3.382812 2.8125 -1.695312 2.8125 0 L 0 0 C 0 0 0.046875 -0.316406 0.140625 -0.953125 C 0.242188 -1.585938 0.296875 -2.332031 0.296875 -3.1875 L 0.296875 -17.109375 C 0.296875 -17.960938 0.242188 -18.707031 0.140625 -19.34375 C 0.046875 -19.976562 0 -20.296875 0 -20.296875 Z M 3.109375 -20.296875 "/></g></g></g><g fill="#ffffff" fill-opacity="1"><g transform="translate(64.104244, 22.557269)"><g><path d="M 12.328125 -5.078125 L 12.703125 -5.078125 C 12.503906 -4.109375 12.097656 -3.238281 11.484375 -2.46875 C 10.867188 -1.707031 10.113281 -1.101562 9.21875 -0.65625 C 8.332031 -0.21875 7.375 0 6.34375 0 C 5.1875 0 4.128906 -0.285156 3.171875 -0.859375 C 2.210938 -1.429688 1.441406 -2.191406 0.859375 -3.140625 C 0.285156 -4.097656 0 -5.164062 0 -6.34375 C 0 -7.53125 0.285156 -8.597656 0.859375 -9.546875 C 1.429688 -10.503906 2.195312 -11.269531 3.15625 -11.84375 C 4.125 -12.414062 5.1875 -12.703125 6.34375 -12.703125 C 7.144531 -12.703125 7.890625 -12.566406 8.578125 -12.296875 C 9.273438 -12.023438 9.894531 -11.65625 10.4375 -11.1875 C 10.882812 -10.820312 11.257812 -10.382812 11.5625 -9.875 C 11.875 -9.363281 12.050781 -8.816406 12.09375 -8.234375 C 12.1875 -7.304688 12.007812 -6.550781 11.5625 -5.96875 C 11.125 -5.394531 10.523438 -5 9.765625 -4.78125 C 9.015625 -4.570312 8.234375 -4.535156 7.421875 -4.671875 C 6.472656 -4.828125 5.582031 -5.203125 4.75 -5.796875 C 3.925781 -6.398438 3.222656 -7.097656 2.640625 -7.890625 C 2.460938 -8.140625 2.304688 -8.394531 2.171875 -8.65625 C 2.035156 -8.914062 1.921875 -9.191406 1.828125 -9.484375 C 1.648438 -8.734375 1.675781 -7.890625 1.90625 -6.953125 C 2.144531 -6.023438 2.5625 -5.109375 3.15625 -4.203125 C 3.582031 -3.566406 4.109375 -3.019531 4.734375 -2.5625 C 5.367188 -2.113281 6.046875 -1.800781 6.765625 -1.625 C 7.492188 -1.445312 8.21875 -1.4375 8.9375 -1.59375 C 9.757812 -1.769531 10.488281 -2.1875 11.125 -2.84375 C 11.769531 -3.5 12.171875 -4.242188 12.328125 -5.078125 Z M 2.984375 -11.34375 C 2.597656 -11.070312 2.28125 -10.679688 2.03125 -10.171875 C 2.238281 -9.347656 2.570312 -8.640625 3.03125 -8.046875 C 3.5 -7.453125 4.066406 -6.972656 4.734375 -6.609375 C 5.597656 -6.128906 6.375 -5.878906 7.0625 -5.859375 C 7.75 -5.835938 8.304688 -5.988281 8.734375 -6.3125 C 9.171875 -6.644531 9.457031 -7.070312 9.59375 -7.59375 C 9.726562 -8.113281 9.679688 -8.671875 9.453125 -9.265625 C 9.222656 -9.867188 8.769531 -10.4375 8.09375 -10.96875 C 7.550781 -11.382812 6.960938 -11.664062 6.328125 -11.8125 C 5.703125 -11.957031 5.09375 -11.988281 4.5 -11.90625 C 3.914062 -11.820312 3.410156 -11.632812 2.984375 -11.34375 Z M 2.984375 -11.34375 "/></g></g></g><g fill="#ffffff" fill-opacity="1"><g transform="translate(79.325137, 22.557269)"><g><path d="M 2.8125 -3.1875 C 2.8125 -2.332031 2.859375 -1.585938 2.953125 -0.953125 C 3.054688 -0.316406 3.109375 0 3.109375 0 L 0 0 C 0 0 0.046875 -0.316406 0.140625 -0.953125 C 0.242188 -1.585938 0.296875 -2.332031 0.296875 -3.1875 L 0.296875 -9.484375 C 0.296875 -10.347656 0.242188 -11.097656 0.140625 -11.734375 C 0.046875 -12.378906 0 -12.703125 0 -12.703125 L 2.8125 -12.703125 L 2.8125 -10.578125 C 3.394531 -10.890625 4.035156 -11.203125 4.734375 -11.515625 C 5.441406 -11.835938 6.175781 -12.113281 6.9375 -12.34375 C 7.707031 -12.582031 8.445312 -12.703125 9.15625 -12.703125 C 10.070312 -12.703125 10.769531 -12.535156 11.25 -12.203125 C 11.738281 -11.878906 12.070312 -11.414062 12.25 -10.8125 C 12.4375 -10.21875 12.53125 -9.515625 12.53125 -8.703125 L 12.53125 -3.1875 C 12.53125 -2.332031 12.578125 -1.585938 12.671875 -0.953125 C 12.765625 -0.316406 12.8125 0 12.8125 0 L 9.71875 0 C 9.71875 0 9.765625 -0.316406 9.859375 -0.953125 C 9.953125 -1.585938 10 -2.332031 10 -3.1875 L 10 -8.765625 C 10 -10.078125 9.703125 -11.015625 9.109375 -11.578125 C 8.523438 -12.148438 7.554688 -12.1875 6.203125 -11.6875 C 5.585938 -11.476562 4.984375 -11.234375 4.390625 -10.953125 C 3.804688 -10.671875 3.28125 -10.40625 2.8125 -10.15625 Z M 2.8125 -3.1875 "/></g></g></g><g fill="#ffffff" fill-opacity="1"><g transform="translate(94.690992, 22.557269)"><g/></g></g><g fill="#ffffff" fill-opacity="1"><g transform="translate(101.910039, 22.557269)"><g><path d="M 8.203125 -21 C 9.097656 -21 9.945312 -20.804688 10.75 -20.421875 C 11.550781 -20.035156 12.164062 -19.484375 12.59375 -18.765625 C 13.03125 -18.046875 13.144531 -17.195312 12.9375 -16.21875 C 12.820312 -15.675781 12.59375 -15.179688 12.25 -14.734375 C 11.914062 -14.285156 11.535156 -13.957031 11.109375 -13.75 L 8.8125 -14.40625 C 9.394531 -14.757812 9.867188 -15.210938 10.234375 -15.765625 C 10.597656 -16.316406 10.832031 -16.867188 10.9375 -17.421875 C 11.070312 -18.222656 11 -18.863281 10.71875 -19.34375 C 10.4375 -19.820312 10.035156 -20.148438 9.515625 -20.328125 C 8.992188 -20.503906 8.445312 -20.519531 7.875 -20.375 C 7.300781 -20.226562 6.789062 -19.925781 6.34375 -19.46875 C 5.90625 -19.019531 5.617188 -18.398438 5.484375 -17.609375 C 5.390625 -17.003906 5.4375 -16.367188 5.625 -15.703125 C 5.820312 -15.035156 6.125 -14.421875 6.53125 -13.859375 C 6.9375 -13.296875 7.410156 -12.851562 7.953125 -12.53125 L 7.953125 -12.1875 C 7.015625 -12.1875 6.175781 -11.882812 5.4375 -11.28125 C 4.707031 -10.675781 4.125 -9.90625 3.6875 -8.96875 C 3.257812 -8.03125 3.023438 -7.070312 2.984375 -6.09375 C 2.941406 -4.945312 3.203125 -3.976562 3.765625 -3.1875 C 4.328125 -2.394531 5.054688 -1.78125 5.953125 -1.34375 C 6.859375 -0.914062 7.828125 -0.660156 8.859375 -0.578125 C 9.890625 -0.503906 10.875 -0.601562 11.8125 -0.875 C 12.75 -1.144531 13.53125 -1.578125 14.15625 -2.171875 C 14.539062 -2.554688 14.84375 -3.035156 15.0625 -3.609375 C 15.289062 -4.179688 15.429688 -4.789062 15.484375 -5.4375 C 15.546875 -6.082031 15.5 -6.695312 15.34375 -7.28125 C 15.1875 -7.875 14.914062 -8.382812 14.53125 -8.8125 C 14.082031 -9.28125 13.566406 -9.59375 12.984375 -9.75 C 12.410156 -9.914062 11.828125 -9.941406 11.234375 -9.828125 C 10.648438 -9.710938 10.117188 -9.460938 9.640625 -9.078125 C 9.171875 -8.691406 8.828125 -8.179688 8.609375 -7.546875 C 8.398438 -6.878906 8.40625 -6.203125 8.625 -5.515625 C 8.851562 -4.835938 9.265625 -4.304688 9.859375 -3.921875 L 7.421875 -3.921875 C 6.898438 -5.097656 6.738281 -6.128906 6.9375 -7.015625 C 7.144531 -7.910156 7.628906 -8.640625 8.390625 -9.203125 C 9.160156 -9.773438 10.101562 -10.175781 11.21875 -10.40625 C 11.550781 -10.46875 11.863281 -10.539062 12.15625 -10.625 C 12.457031 -10.71875 12.734375 -10.835938 12.984375 -10.984375 C 13.378906 -11.242188 13.644531 -11.578125 13.78125 -11.984375 C 13.925781 -12.398438 13.957031 -12.800781 13.875 -13.1875 C 13.789062 -13.582031 13.582031 -13.835938 13.25 -13.953125 L 15.34375 -14.765625 C 15.789062 -13.734375 15.734375 -12.835938 15.171875 -12.078125 C 14.609375 -11.316406 13.773438 -10.742188 12.671875 -10.359375 C 13.691406 -10.179688 14.472656 -9.734375 15.015625 -9.015625 C 15.554688 -8.304688 15.867188 -7.484375 15.953125 -6.546875 C 16.046875 -5.609375 15.929688 -4.679688 15.609375 -3.765625 C 15.234375 -2.765625 14.648438 -1.9375 13.859375 -1.28125 C 13.066406 -0.625 12.171875 -0.132812 11.171875 0.1875 C 10.179688 0.507812 9.175781 0.671875 8.15625 0.671875 C 6.46875 0.671875 5.039062 0.382812 3.875 -0.1875 C 2.71875 -0.757812 1.816406 -1.503906 1.171875 -2.421875 C 0.523438 -3.335938 0.148438 -4.316406 0.046875 -5.359375 C -0.0546875 -6.410156 0.09375 -7.425781 0.5 -8.40625 C 0.914062 -9.394531 1.609375 -10.242188 2.578125 -10.953125 C 3.546875 -11.671875 4.785156 -12.140625 6.296875 -12.359375 C 5.265625 -12.660156 4.421875 -13.191406 3.765625 -13.953125 C 3.109375 -14.722656 2.78125 -15.59375 2.78125 -16.5625 C 2.78125 -17.507812 3.054688 -18.3125 3.609375 -18.96875 C 4.160156 -19.625 4.851562 -20.125 5.6875 -20.46875 C 6.519531 -20.820312 7.359375 -21 8.203125 -21 Z M 8.203125 -21 "/></g></g></g><g fill="#ffffff" fill-opacity="1"><g transform="translate(120.46503, 22.557269)"><g><path d="M 3.28125 -19.890625 L 3.25 -0.40625 L 5.359375 -0.40625 C 6.148438 -0.40625 7.023438 -0.488281 7.984375 -0.65625 C 8.941406 -0.832031 9.847656 -1.125 10.703125 -1.53125 C 11.554688 -1.9375 12.210938 -2.5 12.671875 -3.21875 C 13.117188 -3.875 13.347656 -4.539062 13.359375 -5.21875 C 13.367188 -5.894531 13.210938 -6.519531 12.890625 -7.09375 C 12.566406 -7.664062 12.113281 -8.128906 11.53125 -8.484375 C 10.957031 -8.835938 10.296875 -9.023438 9.546875 -9.046875 C 8.984375 -9.066406 8.40625 -8.992188 7.8125 -8.828125 C 7.226562 -8.660156 6.703125 -8.40625 6.234375 -8.0625 C 5.765625 -7.726562 5.425781 -7.300781 5.21875 -6.78125 C 5.257812 -7.40625 5.519531 -7.9375 6 -8.375 C 6.488281 -8.820312 7.050781 -9.210938 7.6875 -9.546875 C 8.382812 -9.910156 9.070312 -10.226562 9.75 -10.5 C 10.425781 -10.769531 11.035156 -11.082031 11.578125 -11.4375 C 12.128906 -11.800781 12.566406 -12.269531 12.890625 -12.84375 C 13.222656 -13.425781 13.390625 -14.203125 13.390625 -15.171875 C 13.390625 -16.441406 13.125 -17.414062 12.59375 -18.09375 C 12.0625 -18.769531 11.351562 -19.238281 10.46875 -19.5 C 9.582031 -19.757812 8.585938 -19.890625 7.484375 -19.890625 Z M 10.296875 0 L 0 0 C 0 0 0.046875 -0.316406 0.140625 -0.953125 C 0.242188 -1.585938 0.296875 -2.332031 0.296875 -3.1875 L 0.296875 -17.109375 C 0.296875 -17.960938 0.242188 -18.707031 0.140625 -19.34375 C 0.046875 -19.976562 0 -20.296875 0 -20.296875 L 10.296875 -20.296875 C 11.378906 -20.296875 12.378906 -20.109375 13.296875 -19.734375 C 14.210938 -19.359375 14.957031 -18.789062 15.53125 -18.03125 C 16.101562 -17.28125 16.390625 -16.328125 16.390625 -15.171875 C 16.390625 -13.972656 16.117188 -13.03125 15.578125 -12.34375 C 15.035156 -11.65625 14.328125 -11.128906 13.453125 -10.765625 C 12.585938 -10.410156 11.660156 -10.109375 10.671875 -9.859375 C 11.660156 -9.921875 12.585938 -9.773438 13.453125 -9.421875 C 14.328125 -9.078125 15.039062 -8.546875 15.59375 -7.828125 C 16.15625 -7.109375 16.4375 -6.210938 16.4375 -5.140625 C 16.457031 -4.015625 16.160156 -3.070312 15.546875 -2.3125 C 14.941406 -1.5625 14.171875 -0.988281 13.234375 -0.59375 C 12.296875 -0.195312 11.316406 0 10.296875 0 Z M 10.296875 0 "/></g></g></g><g fill="#ffffff" fill-opacity="1"><g transform="translate(139.483896, 22.557269)"><g><path d="M 9.28125 -2.234375 C 8.394531 -1.515625 7.53125 -0.960938 6.6875 -0.578125 C 5.84375 -0.191406 4.925781 0 3.9375 0 C 3.34375 0 2.738281 -0.101562 2.125 -0.3125 C 1.519531 -0.53125 1.015625 -0.859375 0.609375 -1.296875 C 0.203125 -1.742188 0 -2.316406 0 -3.015625 C -0.0195312 -3.734375 0.164062 -4.351562 0.5625 -4.875 C 0.957031 -5.394531 1.457031 -5.8125 2.0625 -6.125 C 2.789062 -6.488281 3.578125 -6.6875 4.421875 -6.71875 C 5.265625 -6.757812 6.09375 -6.832031 6.90625 -6.9375 C 7.40625 -7.007812 7.894531 -7.148438 8.375 -7.359375 C 8.863281 -7.578125 9.25 -7.882812 9.53125 -8.28125 C 9.820312 -8.675781 9.929688 -9.164062 9.859375 -9.75 C 9.785156 -10.539062 9.46875 -11.132812 8.90625 -11.53125 C 8.34375 -11.925781 7.703125 -12.160156 6.984375 -12.234375 C 5.804688 -12.367188 4.703125 -12.207031 3.671875 -11.75 C 2.648438 -11.300781 1.660156 -10.707031 0.703125 -9.96875 L 0 -11.375 C 0.851562 -11.757812 1.847656 -12.078125 2.984375 -12.328125 C 4.128906 -12.578125 5.316406 -12.703125 6.546875 -12.703125 C 7.078125 -12.703125 7.675781 -12.664062 8.34375 -12.59375 C 9.007812 -12.53125 9.648438 -12.390625 10.265625 -12.171875 C 10.878906 -11.960938 11.390625 -11.640625 11.796875 -11.203125 C 12.203125 -10.773438 12.40625 -10.179688 12.40625 -9.421875 C 12.40625 -8.722656 12.191406 -8.191406 11.765625 -7.828125 C 11.347656 -7.460938 10.828125 -7.207031 10.203125 -7.0625 C 9.585938 -6.914062 8.976562 -6.8125 8.375 -6.75 C 7.78125 -6.695312 7.148438 -6.609375 6.484375 -6.484375 C 5.816406 -6.359375 5.179688 -6.164062 4.578125 -5.90625 C 3.984375 -5.644531 3.492188 -5.285156 3.109375 -4.828125 C 2.734375 -4.367188 2.546875 -3.773438 2.546875 -3.046875 C 2.546875 -2.390625 2.75 -1.890625 3.15625 -1.546875 C 3.5625 -1.210938 4.054688 -1.007812 4.640625 -0.9375 C 5.234375 -0.875 5.800781 -0.910156 6.34375 -1.046875 C 7.125 -1.253906 7.832031 -1.585938 8.46875 -2.046875 C 9.101562 -2.515625 9.671875 -3.019531 10.171875 -3.5625 C 10.679688 -4.101562 11.097656 -4.585938 11.421875 -5.015625 L 11.796875 -2.4375 C 11.859375 -2.050781 11.9375 -1.625 12.03125 -1.15625 C 12.132812 -0.695312 12.253906 -0.3125 12.390625 0 L 9.59375 0 Z M 9.28125 -2.234375 "/></g></g></g><g fill="#ffffff" fill-opacity="1"><g transform="translate(154.385876, 22.557269)"><g><path d="M 10.734375 -9.96875 C 10.054688 -10.882812 9.242188 -11.453125 8.296875 -11.671875 C 7.347656 -11.890625 6.363281 -11.789062 5.34375 -11.375 C 4.875 -11.175781 4.425781 -10.96875 4 -10.75 C 3.570312 -10.539062 3.175781 -10.34375 2.8125 -10.15625 L 2.8125 -3.1875 C 2.8125 -2.332031 2.859375 -1.585938 2.953125 -0.953125 C 3.054688 -0.316406 3.109375 0 3.109375 0 L 0 0 C 0 0 0.046875 -0.316406 0.140625 -0.953125 C 0.242188 -1.585938 0.296875 -2.332031 0.296875 -3.1875 L 0.296875 -9.484375 C 0.296875 -10.347656 0.242188 -11.097656 0.140625 -11.734375 C 0.046875 -12.378906 0 -12.703125 0 -12.703125 L 2.8125 -12.703125 L 2.8125 -10.578125 C 3.175781 -10.773438 3.625 -11 4.15625 -11.25 C 4.6875 -11.5 5.242188 -11.738281 5.828125 -11.96875 C 6.410156 -12.207031 6.976562 -12.398438 7.53125 -12.546875 C 8.082031 -12.691406 8.5625 -12.742188 8.96875 -12.703125 C 9.363281 -12.660156 9.738281 -12.550781 10.09375 -12.375 C 10.457031 -12.207031 10.910156 -11.890625 11.453125 -11.421875 Z M 10.734375 -9.96875 "/></g></g></g></g></g></g></svg>